<svg id="Layer_1" data-name="Layer 1" xmlns="http://www.w3.org/2000/svg" viewBox="0 0 483.2 285.45"><defs><style>.cls-1{fill:#63f;}</style></defs><path class="cls-1" d="M219.66,154.89c-1.5,2.55-3,5.1-4.35,7.8s-2.55,5.26-3.75,8c.15,0,.3.15.45.15l2.25-3.6c5.1-7.66,11-14.72,18.62-20.12a31.44,31.44,0,0,1,13.21-5.71c7.51-1.2,13.81.9,19.37,6,7.51,6.91,11.71,15.61,14.26,25.37A93.68,93.68,0,0,1,282.27,201c-1.2,21.47-8.25,41-21.62,58-4.2,5.25-9,10.06-14.86,13.36-10.81,6.16-21.92,5.26-31.53-3a50.38,50.38,0,0,1-16.52-27.18A81.52,81.52,0,0,1,196.39,230,110.9,110.9,0,0,1,198,200.08c3-15,8.41-29.13,17.72-41.44a48.26,48.26,0,0,1,3.6-4.2C219.36,154.74,219.51,154.89,219.66,154.89Zm43.55,52.55a.52.52,0,0,1-.3-.15c0-.3.15-.6.15-.9a112.13,112.13,0,0,0,2.85-28.23,40.69,40.69,0,0,0-3-14.56c-1.81-4.06-4.51-7.36-8.71-9.16-6-2.56-11.71-1.51-17,1.95-6,3.9-10.36,9.46-14.26,15.46a116.85,116.85,0,0,0-10.36,21.92c-4.51,12-7.51,24.33-6.91,37.39a54.68,54.68,0,0,0,7.06,25.07c6.3,11.12,17.26,14.42,27.17,11.27.3-.15.75-.3,1-.45a1.76,1.76,0,0,0-1.2-.31c-8.7-.75-15.46-4.5-20.42-11.86-3.45-5.25-5.1-11.11-6-17.26a2,2,0,0,1,.15-.75,64.48,64.48,0,0,0,3.15,6.45c2.7,5.11,5.86,9.76,10.66,13.06,4.06,2.86,8.41,4.06,13.21,2.11a19.28,19.28,0,0,0,5.41-3.16c7.36-5.85,12.46-13.51,16.82-21.62a73,73,0,0,0,6-15.61c3.45-11.71,4.81-23.73,3-35.89-.45-3-1.05-5.85-1.65-8.86h-.45C270,185.37,268.91,196.78,263.21,207.44Z"/><path d="M10.46,11.06h-9V6.36H24.91v4.7H15.79V41.64H10.46Z"/><path d="M28.08,6.36h5V19.61l-.19,4.08a7.75,7.75,0,0,1,2.93-3.34A8.37,8.37,0,0,1,40.56,19a8.33,8.33,0,0,1,5.23,1.42,6.89,6.89,0,0,1,2.45,4A28.4,28.4,0,0,1,48.86,31V41.64H43.73V31a24.45,24.45,0,0,0-.31-4.36,4.13,4.13,0,0,0-1.25-2.4,4,4,0,0,0-2.71-.82,5.76,5.76,0,0,0-2.91.86,6.91,6.91,0,0,0-2.42,2.52,7.69,7.69,0,0,0-1,3.92V41.64H28.08Z"/><path d="M59.28,40.56a9.55,9.55,0,0,1-3.89-4.18,13.14,13.14,0,0,1-1.25-5.73,12.44,12.44,0,0,1,1.47-6.15,10.06,10.06,0,0,1,4-4.05A12,12,0,0,1,65.52,19q5.08,0,7.56,2.81t2.47,7.9c0,.86,0,1.76-.14,2.68H59.57a6.87,6.87,0,0,0,2.09,4.23A6.61,6.61,0,0,0,66,37.94a15.32,15.32,0,0,0,3.79-.38,12.29,12.29,0,0,0,2.74-1.06l1.58,3.7a12.23,12.23,0,0,1-3.26,1.34,18.54,18.54,0,0,1-5,.58A12.74,12.74,0,0,1,59.28,40.56ZM70.51,28.82q0-3-1.29-4.2a5.55,5.55,0,0,0-3.84-1.22q-5,0-5.81,5.42Z"/><path d="M66.47,63.07H75v55.86H66.47Z"/><path d="M87.29,84h8.06l.07,6.39A12.24,12.24,0,0,1,100,85.18a13,13,0,0,1,7.3-2.05q5.4,0,8.28,2.24a11,11,0,0,1,3.88,6.27,45.38,45.38,0,0,1,1,10.49v16.8h-8.21V102.36q0-6.61-1.29-9.54t-5.32-2.92A9,9,0,0,0,101,91.3a11.1,11.1,0,0,0-3.91,4.07,12.08,12.08,0,0,0-1.56,6.23v17.33H87.29Z"/><path d="M134,90.73h-6.16V84H134V69.83L142.31,68V84h8.06v6.69h-8.06v28.2H134Z"/><path d="M163.14,117.22a15.19,15.19,0,0,1-6.16-6.61,20.82,20.82,0,0,1-2-9.09,19.76,19.76,0,0,1,2.31-9.72,16,16,0,0,1,6.43-6.43A19,19,0,0,1,173,83.13q8.05,0,12,4.45t3.91,12.5a39.31,39.31,0,0,1-.23,4.26H163.59q.84,4.64,3.31,6.68a10.46,10.46,0,0,0,6.88,2.06,24.84,24.84,0,0,0,6-.61,19.28,19.28,0,0,0,4.33-1.67l2.51,5.85a19.5,19.5,0,0,1-5.17,2.13,30.05,30.05,0,0,1-7.9.91A20.23,20.23,0,0,1,163.14,117.22Zm17.78-18.58c.05-3.15-.63-5.36-2-6.65a8.69,8.69,0,0,0-6.08-1.94q-8,0-9.2,8.59Z"/><path d="M197.26,84h8.21v6.84a11.9,11.9,0,0,1,3.95-5.62,9.88,9.88,0,0,1,6.23-2.13,8.28,8.28,0,0,1,3.35.46l-1.14,8.28a6.29,6.29,0,0,0-3-.45,10.3,10.3,0,0,0-6.49,2.28c-2,1.52-2.93,4-2.93,7.29v17.94h-8.21Z"/><path d="M224.77,84h8.06l.07,6.39a12.38,12.38,0,0,1,4.56-5.25,13,13,0,0,1,7.3-2.05q5.4,0,8.28,2.24a11,11,0,0,1,3.88,6.27,45.38,45.38,0,0,1,1,10.49v16.8H249.7V102.36q0-6.61-1.29-9.54c-.86-1.95-2.64-2.92-5.32-2.92a9,9,0,0,0-4.64,1.4,11.18,11.18,0,0,0-3.91,4.07A12.08,12.08,0,0,0,233,101.6v17.33h-8.21Z"/><path d="M274.55,117.22a15.17,15.17,0,0,1-6.15-6.61,20.82,20.82,0,0,1-2-9.09,19.66,19.66,0,0,1,2.32-9.72,16,16,0,0,1,6.42-6.43,19.09,19.09,0,0,1,9.27-2.24q8.06,0,12,4.45t3.92,12.5a42,42,0,0,1-.23,4.26H275q.84,4.64,3.3,6.68a10.46,10.46,0,0,0,6.88,2.06,24.93,24.93,0,0,0,6-.61,19.47,19.47,0,0,0,4.33-1.67l2.51,5.85a19.5,19.5,0,0,1-5.17,2.13,30.05,30.05,0,0,1-7.9.91A20.27,20.27,0,0,1,274.55,117.22Zm17.79-18.58c.05-3.15-.64-5.36-2-6.65a8.69,8.69,0,0,0-6.08-1.94q-8,0-9.2,8.59Z"/><path d="M311.94,90.73h-6.15V84h6.15V69.83L320.23,68V84h8v6.69h-8v28.2h-8.29Z"/><path d="M132.52,163.36h19.6q16.57,0,24.26,7.08t7.68,19.42q0,14.28-8.35,21.9t-24.8,7.62h-4.72V252.3H132.52Zm18.75,44q10.65,0,14.88-4.71a16.43,16.43,0,0,0,4.24-11.38q0-7.14-4.12-11.61t-13.79-4.48h-6.29V207.4Z"/><path d="M299.65,196.76h13.07v10.89a18.83,18.83,0,0,1,6.29-9,15.77,15.77,0,0,1,9.92-3.39,13.32,13.32,0,0,1,5.32.73l-1.81,13.19c-.73-.48-2.3-.73-4.72-.73a16.45,16.45,0,0,0-10.35,3.63q-4.65,3.63-4.65,11.62v28.55H299.65Z"/><path d="M348.29,207.4h-9.8V196.76h9.8V174.13l13.19-2.9v25.53H374.3V207.4H361.48v44.89H348.29Z"/><path d="M395.66,249.94a26.77,26.77,0,0,1-10.17-10.17,30.28,30.28,0,0,1-3.81-15.43A33.13,33.13,0,0,1,385,209.1a24.37,24.37,0,0,1,9.5-10.17A28.1,28.1,0,0,1,409,195.3a24.18,24.18,0,0,1,9.07,1.7,25.35,25.35,0,0,1,7.14,4.17,13.19,13.19,0,0,1,3.87,4.9l.25-9.31h12.46v55.53H429.48l-.24-9.8a18.7,18.7,0,0,1-7.51,7.69,22.94,22.94,0,0,1-12.22,3.32A27.87,27.87,0,0,1,395.66,249.94Zm27.65-12.1q4.71-4.78,4.72-12.53v-.85a19.62,19.62,0,0,0-2.18-9.31,16.26,16.26,0,0,0-5.93-6.41,15.4,15.4,0,0,0-8.23-2.3q-7.74,0-12,5t-4.23,13q0,8.11,4.17,13.13t12,5A15.72,15.72,0,0,0,423.31,237.84Z"/><path d="M460.45,163.36H473.4v88.93H460.45Z"/></svg>