<?xml version="1.0" encoding="utf-8"?>
<!-- Generator: Adobe Illustrator 24.2.3, SVG Export Plug-In . SVG Version: 6.00 Build 0)  -->
<svg version="1.1" id="Layer_1" xmlns="http://www.w3.org/2000/svg" xmlns:xlink="http://www.w3.org/1999/xlink" x="0px" y="0px"
	 viewBox="0 0 100 100" style="enable-background:new 0 0 100 100;" xml:space="preserve">
<style type="text/css">
	.st0{fill:#7C66FF;}
</style>
<path class="st0" d="M51.4,85.7c18.2,5,37.4-9.4,42.4-27.6c-10,13.7-20.5,19-31.8,17.3c1.7-0.2,3.4-0.6,5-1.1l0,0
	c6-1.8,11.6-5.4,16-10.5c12.3-14.4,7.3-37.8-7.1-50.1c6.5,11.9,8.1,21.8,5.2,30.2c0.6-4.2,0.3-8.6-0.8-13l0,0
	C75.5,12.6,53.4,3.2,35.1,8C50.5,9.7,60,15.2,64.7,24.2c-4.2-4.6-9.7-8.1-16.1-9.9c-18.2-5-37.4,9.4-42.4,27.6
	c10.1-13.6,20.5-19,31.8-17.2c-1.7,0.2-3.4,0.6-5,1.1l0,0c-6,1.8-11.6,5.4-16,10.5C4.7,50.6,9.7,74,24.1,86.3
	c-6.5-11.9-8.1-21.8-5.2-30.2c-0.5,4.2-0.3,8.6,0.8,13C24.5,87.4,46.6,96.8,64.9,92C49.5,90.3,40,84.8,35.3,75.8
	C39.5,80.4,45,84,51.4,85.7z M50,36.6c7.4,0,13.4,6,13.4,13.4s-6,13.4-13.4,13.4s-13.4-6-13.4-13.4S42.6,36.6,50,36.6z"/>
</svg>
