<svg fill="#6633ff" xmlns="http://www.w3.org/2000/svg" xmlns:xlink="http://www.w3.org/1999/xlink" version="1.1" x="0px" y="0px" viewBox="0 0 100 100" enable-background="new 0 0 100 100" xml:space="preserve"><path d="M37,14c-1,1.7-2,3.4-2.9,5.2c-0.9,1.7-1.7,3.5-2.5,5.3c0.1,0,0.2,0.1,0.3,0.1c0.5-0.8,1-1.6,1.5-2.4  c3.4-5.1,7.3-9.8,12.4-13.4c2.7-1.9,5.6-3.3,8.8-3.8c5-0.8,9.2,0.6,12.9,4c5,4.6,7.8,10.4,9.5,16.9c1.6,6.2,2,12.4,1.7,18.8  c-0.8,14.3-5.5,27.3-14.4,38.6c-2.8,3.5-6,6.7-9.9,8.9c-7.2,4.1-14.6,3.5-21-2c-5.6-4.8-9.3-10.9-11-18.1c-0.6-2.6-0.7-5.4-0.9-8.1  c-0.5-6.7-0.2-13.3,1.1-19.9c2-10,5.6-19.4,11.8-27.6c0.7-1,1.6-1.9,2.4-2.8C36.8,13.9,36.9,14,37,14z M66,49  c-0.1,0-0.2-0.1-0.2-0.1c0-0.2,0.1-0.4,0.1-0.6c1.4-6.2,2.1-12.5,1.9-18.8c-0.1-3.3-0.7-6.6-2-9.7c-1.2-2.7-3-4.9-5.8-6.1  c-4-1.7-7.8-1-11.3,1.3c-4,2.6-6.9,6.3-9.5,10.3c-2.9,4.6-5,9.5-6.9,14.6c-3,8-5,16.2-4.6,24.9c0.3,5.9,1.7,11.5,4.7,16.7  c4.2,7.4,11.5,9.6,18.1,7.5c0.2-0.1,0.5-0.2,0.7-0.3c-0.3-0.2-0.5-0.2-0.8-0.2c-5.8-0.5-10.3-3-13.6-7.9c-2.3-3.5-3.4-7.4-4-11.5  c0-0.1,0-0.2,0.1-0.5c0.7,1.5,1.3,3,2.1,4.3c1.8,3.4,3.9,6.5,7.1,8.7c2.7,1.9,5.6,2.7,8.8,1.4c1.3-0.5,2.5-1.2,3.6-2.1  c4.9-3.9,8.3-9,11.2-14.4c1.8-3.3,3-6.8,4-10.4c2.3-7.8,3.2-15.8,2-23.9c-0.3-2-0.7-3.9-1.1-5.9c-0.1,0-0.2,0-0.3,0  C70.5,34.3,69.8,41.9,66,49z"></path></svg>