<?xml version="1.0" standalone="no"?>
<!DOCTYPE svg PUBLIC "-//W3C//DTD SVG 20010904//EN"
 "http://www.w3.org/TR/2001/REC-SVG-20010904/DTD/svg10.dtd">
<svg version="1.0" xmlns="http://www.w3.org/2000/svg"
 width="700.000000pt" height="700.000000pt" viewBox="0 0 700.000000 700.000000"
 preserveAspectRatio="xMidYMid meet">
<metadata>
Created by potrace 1.11, written by Peter Selinger 2001-2013
</metadata>
<g transform="translate(0.000000,700.000000) scale(0.100000,-0.100000)"
fill="#000000" stroke="none">
<path d="M2987 6524 c-1 -1 -38 -5 -82 -8 -78 -6 -128 -12 -190 -23 -16 -2
-41 -6 -55 -9 -14 -2 -32 -5 -40 -7 -8 -2 -43 -10 -78 -17 -64 -13 -88 -26
-49 -26 35 -1 220 -26 272 -37 11 -3 40 -8 65 -12 25 -4 54 -9 65 -11 20 -4
166 -38 215 -51 14 -3 33 -8 42 -9 50 -10 330 -110 427 -153 310 -137 583
-342 775 -581 30 -37 131 -192 151 -230 15 -28 1 -18 -71 52 -263 257 -559
438 -911 557 -248 84 -433 112 -693 106 -91 -2 -174 -6 -185 -8 -11 -3 -45 -8
-75 -12 -145 -18 -369 -82 -544 -155 -94 -39 -284 -136 -307 -156 -8 -8 -19
-14 -23 -14 -16 0 -220 -144 -321 -227 -364 -297 -658 -692 -832 -1113 -31
-76 -103 -281 -103 -294 0 -4 46 50 102 121 56 70 107 133 113 139 5 6 38 43
73 82 205 231 478 464 697 594 194 116 450 214 635 244 14 2 34 6 45 9 81 17
332 23 450 10 33 -4 66 -7 73 -8 17 -1 5 -10 -16 -13 -36 -5 -107 -17 -117
-20 -5 -2 -19 -5 -30 -7 -423 -96 -838 -330 -1152 -648 -337 -342 -500 -668
-588 -1174 -25 -146 -25 -500 0 -675 5 -32 9 -58 21 -130 25 -147 89 -370 153
-531 148 -372 357 -695 621 -959 175 -176 173 -177 82 5 -69 139 -169 360
-177 390 -1 6 -7 21 -12 35 -67 163 -148 479 -168 650 -3 25 -8 63 -11 85 -8
55 -8 308 0 375 13 107 18 136 32 205 19 86 20 89 38 145 14 44 14 43 8 -55
-18 -290 4 -545 69 -790 16 -60 31 -114 33 -120 153 -448 455 -828 881 -1112
219 -147 553 -294 820 -363 113 -29 310 -67 383 -75 194 -21 444 -25 602 -11
140 12 403 59 422 76 4 3 -7 7 -25 8 -54 4 -119 12 -177 22 -30 5 -71 12 -90
15 -62 10 -143 26 -225 46 -44 11 -89 21 -100 24 -90 18 -354 106 -450 149
-350 159 -571 317 -768 551 -68 79 -129 166 -182 260 l-29 50 90 -87 c49 -48
121 -112 159 -143 39 -31 77 -62 85 -68 8 -7 51 -37 95 -66 44 -30 92 -62 106
-72 41 -28 242 -126 327 -160 282 -113 527 -159 817 -154 180 4 191 5 355 35
472 88 934 341 1325 727 310 306 565 719 704 1142 28 87 27 92 -11 41 -184
-245 -464 -544 -648 -692 -337 -270 -697 -433 -1050 -475 -114 -13 -460 -7
-460 8 0 4 24 9 53 13 67 9 257 60 366 98 242 85 485 221 696 389 94 74 281
258 353 346 250 308 413 718 449 1133 13 145 5 521 -12 550 -1 3 -5 29 -9 58
-11 94 -55 284 -95 414 -141 450 -377 845 -701 1168 -63 64 -123 122 -132 129
-10 7 18 -58 61 -145 83 -168 171 -366 171 -387 0 -7 4 -17 9 -22 20 -23 124
-365 146 -482 14 -75 25 -142 30 -180 3 -24 7 -61 10 -83 9 -59 9 -295 1 -380
-9 -91 -39 -242 -65 -330 l-20 -65 7 80 c17 197 4 458 -33 655 -26 135 -79
325 -96 345 -5 5 -9 15 -9 23 0 23 -91 211 -149 307 -176 292 -456 569 -766
758 -368 224 -771 355 -1235 403 -60 6 -407 13 -413 8z m693 -2104 c217 -39
446 -185 577 -367 124 -173 177 -340 176 -558 0 -195 -46 -352 -148 -506 -146
-218 -373 -369 -625 -415 -70 -12 -254 -11 -327 3 -352 66 -641 330 -737 673
-21 78 -27 122 -31 230 -8 260 83 488 270 676 156 157 344 250 560 277 52 7
219 -1 285 -13z"/>
</g>
</svg>
